<mxfile host="app.diagrams.net" modified="2024-07-24T14:20:23.153Z" agent="Mozilla/5.0 (X11; Linux x86_64) AppleWebKit/537.36 (KHTML, like Gecko) Chrome/127.0.0.0 Safari/537.36" etag="OoVz0VRsUEucaFkI6WqN" version="24.7.1" type="device" pages="2">
  <diagram name="FSM" id="-DQZAYkFqD9qr5STE-qW">
    <mxGraphModel dx="4747" dy="2169" grid="0" gridSize="10" guides="0" tooltips="1" connect="1" arrows="1" fold="1" page="1" pageScale="1" pageWidth="850" pageHeight="1100" math="0" shadow="0">
      <root>
        <mxCell id="0" />
        <mxCell id="1" parent="0" />
        <mxCell id="GfJ_Xndaadh-Nx3bhF35-75" value="" style="group" vertex="1" connectable="0" parent="1">
          <mxGeometry x="-457" y="117" width="1638" height="1204" as="geometry" />
        </mxCell>
        <mxCell id="GfJ_Xndaadh-Nx3bhF35-1" value="&lt;font style=&quot;font-size: 30px;&quot;&gt;&lt;b&gt;S0&lt;/b&gt;&lt;/font&gt;" style="ellipse;whiteSpace=wrap;html=1;aspect=fixed;fillColor=#71BBFC;strokeColor=#000000;" vertex="1" parent="GfJ_Xndaadh-Nx3bhF35-75">
          <mxGeometry x="787" y="75" width="100" height="100" as="geometry" />
        </mxCell>
        <mxCell id="GfJ_Xndaadh-Nx3bhF35-4" value="" style="curved=1;endArrow=classic;html=1;rounded=0;entryX=0;entryY=0;entryDx=0;entryDy=0;exitX=1;exitY=1;exitDx=0;exitDy=0;" edge="1" parent="GfJ_Xndaadh-Nx3bhF35-75" source="GfJ_Xndaadh-Nx3bhF35-7" target="GfJ_Xndaadh-Nx3bhF35-1">
          <mxGeometry width="50" height="50" relative="1" as="geometry">
            <mxPoint x="734" y="68" as="sourcePoint" />
            <mxPoint x="873" y="171" as="targetPoint" />
            <Array as="points">
              <mxPoint x="783" y="59" />
            </Array>
          </mxGeometry>
        </mxCell>
        <mxCell id="GfJ_Xndaadh-Nx3bhF35-7" value="!rst" style="text;html=1;align=center;verticalAlign=middle;whiteSpace=wrap;rounded=0;fontStyle=1" vertex="1" parent="GfJ_Xndaadh-Nx3bhF35-75">
          <mxGeometry x="725" y="41" width="28" height="16" as="geometry" />
        </mxCell>
        <mxCell id="GfJ_Xndaadh-Nx3bhF35-10" value="&lt;h1&gt;&lt;b style=&quot;font-size: 30px;&quot;&gt;S1&lt;/b&gt;&lt;br&gt;&lt;/h1&gt;" style="ellipse;whiteSpace=wrap;html=1;aspect=fixed;fillColor=#71BBFC;strokeColor=#000000;align=center;verticalAlign=middle;fontFamily=Helvetica;fontSize=12;fontColor=default;" vertex="1" parent="GfJ_Xndaadh-Nx3bhF35-75">
          <mxGeometry x="1043" y="214" width="100" height="100" as="geometry" />
        </mxCell>
        <mxCell id="GfJ_Xndaadh-Nx3bhF35-11" value="" style="curved=1;endArrow=classic;html=1;rounded=0;exitX=1;exitY=0.5;exitDx=0;exitDy=0;entryX=0.157;entryY=0.105;entryDx=0;entryDy=0;entryPerimeter=0;" edge="1" parent="GfJ_Xndaadh-Nx3bhF35-75" source="GfJ_Xndaadh-Nx3bhF35-1" target="GfJ_Xndaadh-Nx3bhF35-10">
          <mxGeometry width="50" height="50" relative="1" as="geometry">
            <mxPoint x="1022" y="307" as="sourcePoint" />
            <mxPoint x="1072" y="257" as="targetPoint" />
            <Array as="points">
              <mxPoint x="997" y="130" />
            </Array>
          </mxGeometry>
        </mxCell>
        <mxCell id="GfJ_Xndaadh-Nx3bhF35-12" value="&lt;font style=&quot;font-size: 14px;&quot;&gt;push &amp;amp;&amp;amp; can_write &amp;amp;&amp;amp; !full / status + 1&lt;/font&gt;" style="text;html=1;align=center;verticalAlign=middle;whiteSpace=wrap;rounded=0;fontStyle=1" vertex="1" parent="GfJ_Xndaadh-Nx3bhF35-75">
          <mxGeometry x="959" y="108" width="242" height="30" as="geometry" />
        </mxCell>
        <mxCell id="GfJ_Xndaadh-Nx3bhF35-14" value="&lt;font style=&quot;font-size: 14px;&quot;&gt;!(push &amp;amp;&amp;amp; can_write &amp;amp;&amp;amp; !full)/ status = 0&lt;/font&gt;" style="text;html=1;align=center;verticalAlign=middle;whiteSpace=wrap;rounded=0;fontStyle=1" vertex="1" parent="GfJ_Xndaadh-Nx3bhF35-75">
          <mxGeometry x="788" width="212" height="30" as="geometry" />
        </mxCell>
        <mxCell id="GfJ_Xndaadh-Nx3bhF35-15" value="" style="curved=1;endArrow=classic;html=1;rounded=0;exitX=0.5;exitY=0;exitDx=0;exitDy=0;entryX=1;entryY=0;entryDx=0;entryDy=0;" edge="1" parent="GfJ_Xndaadh-Nx3bhF35-75" source="GfJ_Xndaadh-Nx3bhF35-1" target="GfJ_Xndaadh-Nx3bhF35-1">
          <mxGeometry width="50" height="50" relative="1" as="geometry">
            <mxPoint x="959" y="195" as="sourcePoint" />
            <mxPoint x="1009" y="145" as="targetPoint" />
            <Array as="points">
              <mxPoint x="842" y="61" />
              <mxPoint x="861" y="35" />
              <mxPoint x="888" y="37" />
              <mxPoint x="889" y="72" />
            </Array>
          </mxGeometry>
        </mxCell>
        <mxCell id="GfJ_Xndaadh-Nx3bhF35-16" value="&lt;b style=&quot;font-size: 30px;&quot;&gt;S2&lt;/b&gt;" style="ellipse;whiteSpace=wrap;html=1;aspect=fixed;fillColor=#71BBFC;strokeColor=#000000;" vertex="1" parent="GfJ_Xndaadh-Nx3bhF35-75">
          <mxGeometry x="1262" y="454" width="100" height="100" as="geometry" />
        </mxCell>
        <mxCell id="GfJ_Xndaadh-Nx3bhF35-17" value="&lt;font style=&quot;font-size: 14px;&quot;&gt;push &amp;amp;&amp;amp; can_write &amp;amp;&amp;amp; !full / status + 1&lt;/font&gt;" style="text;html=1;align=center;verticalAlign=middle;whiteSpace=wrap;rounded=0;fontStyle=1" vertex="1" parent="GfJ_Xndaadh-Nx3bhF35-75">
          <mxGeometry x="1254" y="302" width="242" height="30" as="geometry" />
        </mxCell>
        <mxCell id="GfJ_Xndaadh-Nx3bhF35-19" value="" style="curved=1;endArrow=classic;html=1;rounded=0;exitX=1;exitY=0.5;exitDx=0;exitDy=0;entryX=0.5;entryY=0;entryDx=0;entryDy=0;" edge="1" parent="GfJ_Xndaadh-Nx3bhF35-75" source="GfJ_Xndaadh-Nx3bhF35-10" target="GfJ_Xndaadh-Nx3bhF35-16">
          <mxGeometry width="50" height="50" relative="1" as="geometry">
            <mxPoint x="1125" y="360" as="sourcePoint" />
            <mxPoint x="1297" y="459" as="targetPoint" />
            <Array as="points">
              <mxPoint x="1279" y="327" />
            </Array>
          </mxGeometry>
        </mxCell>
        <mxCell id="GfJ_Xndaadh-Nx3bhF35-21" value="" style="curved=1;endArrow=classic;html=1;rounded=0;exitX=0;exitY=0.5;exitDx=0;exitDy=0;entryX=0;entryY=1;entryDx=0;entryDy=0;" edge="1" parent="GfJ_Xndaadh-Nx3bhF35-75" source="GfJ_Xndaadh-Nx3bhF35-16" target="GfJ_Xndaadh-Nx3bhF35-10">
          <mxGeometry width="50" height="50" relative="1" as="geometry">
            <mxPoint x="873" y="388" as="sourcePoint" />
            <mxPoint x="1042" y="578" as="targetPoint" />
            <Array as="points">
              <mxPoint x="1110" y="471" />
            </Array>
          </mxGeometry>
        </mxCell>
        <mxCell id="GfJ_Xndaadh-Nx3bhF35-22" value="&lt;font style=&quot;font-size: 14px;&quot;&gt;pop &amp;amp;&amp;amp; can_read &amp;amp;&amp;amp; !empty / status - 1&lt;/font&gt;" style="text;html=1;align=center;verticalAlign=middle;whiteSpace=wrap;rounded=0;fontStyle=1" vertex="1" parent="GfJ_Xndaadh-Nx3bhF35-75">
          <mxGeometry x="859" y="428" width="256" height="30" as="geometry" />
        </mxCell>
        <mxCell id="GfJ_Xndaadh-Nx3bhF35-23" value="" style="curved=1;endArrow=classic;html=1;rounded=0;exitX=1;exitY=0;exitDx=0;exitDy=0;entryX=1;entryY=0.5;entryDx=0;entryDy=0;" edge="1" parent="GfJ_Xndaadh-Nx3bhF35-75" source="GfJ_Xndaadh-Nx3bhF35-16" target="GfJ_Xndaadh-Nx3bhF35-16">
          <mxGeometry width="50" height="50" relative="1" as="geometry">
            <mxPoint x="1371" y="481" as="sourcePoint" />
            <mxPoint x="1406" y="496" as="targetPoint" />
            <Array as="points">
              <mxPoint x="1375" y="444" />
              <mxPoint x="1387" y="433" />
              <mxPoint x="1406" y="428" />
              <mxPoint x="1421" y="439" />
              <mxPoint x="1406" y="466" />
            </Array>
          </mxGeometry>
        </mxCell>
        <mxCell id="GfJ_Xndaadh-Nx3bhF35-24" value="&lt;font style=&quot;font-size: 14px;&quot;&gt;else&lt;/font&gt;" style="text;html=1;align=center;verticalAlign=middle;whiteSpace=wrap;rounded=0;fontStyle=1" vertex="1" parent="GfJ_Xndaadh-Nx3bhF35-75">
          <mxGeometry x="1407" y="398" width="56" height="30" as="geometry" />
        </mxCell>
        <mxCell id="GfJ_Xndaadh-Nx3bhF35-25" value="&lt;b style=&quot;font-size: 30px;&quot;&gt;S3&lt;/b&gt;" style="ellipse;whiteSpace=wrap;html=1;aspect=fixed;fillColor=#71BBFC;strokeColor=#000000;" vertex="1" parent="GfJ_Xndaadh-Nx3bhF35-75">
          <mxGeometry x="1227" y="828" width="100" height="100" as="geometry" />
        </mxCell>
        <mxCell id="GfJ_Xndaadh-Nx3bhF35-26" value="" style="curved=1;endArrow=classic;html=1;rounded=0;exitX=1;exitY=1;exitDx=0;exitDy=0;entryX=1;entryY=0.5;entryDx=0;entryDy=0;" edge="1" parent="GfJ_Xndaadh-Nx3bhF35-75" source="GfJ_Xndaadh-Nx3bhF35-16" target="GfJ_Xndaadh-Nx3bhF35-25">
          <mxGeometry width="50" height="50" relative="1" as="geometry">
            <mxPoint x="1291" y="630" as="sourcePoint" />
            <mxPoint x="1460" y="820" as="targetPoint" />
            <Array as="points">
              <mxPoint x="1417" y="723" />
            </Array>
          </mxGeometry>
        </mxCell>
        <mxCell id="GfJ_Xndaadh-Nx3bhF35-27" value="&lt;font style=&quot;font-size: 14px;&quot;&gt;push &amp;amp;&amp;amp; can_write &amp;amp;&amp;amp; !full / status + 1&lt;/font&gt;" style="text;html=1;align=center;verticalAlign=middle;whiteSpace=wrap;rounded=0;fontStyle=1" vertex="1" parent="GfJ_Xndaadh-Nx3bhF35-75">
          <mxGeometry x="1396" y="683" width="242" height="30" as="geometry" />
        </mxCell>
        <mxCell id="GfJ_Xndaadh-Nx3bhF35-28" value="" style="curved=1;endArrow=classic;html=1;rounded=0;exitX=0;exitY=0;exitDx=0;exitDy=0;entryX=0;entryY=1;entryDx=0;entryDy=0;" edge="1" parent="GfJ_Xndaadh-Nx3bhF35-75" source="GfJ_Xndaadh-Nx3bhF35-25" target="GfJ_Xndaadh-Nx3bhF35-16">
          <mxGeometry width="50" height="50" relative="1" as="geometry">
            <mxPoint x="1218" y="549" as="sourcePoint" />
            <mxPoint x="1198" y="888" as="targetPoint" />
            <Array as="points">
              <mxPoint x="1206" y="704" />
            </Array>
          </mxGeometry>
        </mxCell>
        <mxCell id="GfJ_Xndaadh-Nx3bhF35-29" value="&lt;span style=&quot;font-size: 14px;&quot;&gt;pop &amp;amp;&amp;amp; can_read &amp;amp;&amp;amp; !empty / status - 1&lt;/span&gt;" style="text;html=1;align=center;verticalAlign=middle;whiteSpace=wrap;rounded=0;fontStyle=1" vertex="1" parent="GfJ_Xndaadh-Nx3bhF35-75">
          <mxGeometry x="974" y="683" width="258" height="30" as="geometry" />
        </mxCell>
        <mxCell id="GfJ_Xndaadh-Nx3bhF35-30" value="" style="curved=1;endArrow=classic;html=1;rounded=0;exitX=0.944;exitY=0.722;exitDx=0;exitDy=0;entryX=0.738;entryY=0.946;entryDx=0;entryDy=0;exitPerimeter=0;entryPerimeter=0;" edge="1" parent="GfJ_Xndaadh-Nx3bhF35-75" source="GfJ_Xndaadh-Nx3bhF35-25" target="GfJ_Xndaadh-Nx3bhF35-25">
          <mxGeometry width="50" height="50" relative="1" as="geometry">
            <mxPoint x="1337" y="929" as="sourcePoint" />
            <mxPoint x="1352" y="964" as="targetPoint" />
            <Array as="points">
              <mxPoint x="1354" y="893" />
              <mxPoint x="1385" y="893" />
              <mxPoint x="1405" y="906" />
              <mxPoint x="1397" y="931" />
              <mxPoint x="1359" y="942" />
            </Array>
          </mxGeometry>
        </mxCell>
        <mxCell id="GfJ_Xndaadh-Nx3bhF35-31" value="&lt;font style=&quot;font-size: 14px;&quot;&gt;else&lt;/font&gt;" style="text;html=1;align=center;verticalAlign=middle;whiteSpace=wrap;rounded=0;fontStyle=1" vertex="1" parent="GfJ_Xndaadh-Nx3bhF35-75">
          <mxGeometry x="1413" y="898" width="56" height="30" as="geometry" />
        </mxCell>
        <mxCell id="GfJ_Xndaadh-Nx3bhF35-32" value="" style="curved=1;endArrow=classic;html=1;rounded=0;exitX=0.5;exitY=0;exitDx=0;exitDy=0;entryX=1;entryY=0;entryDx=0;entryDy=0;" edge="1" parent="GfJ_Xndaadh-Nx3bhF35-75" source="GfJ_Xndaadh-Nx3bhF35-10" target="GfJ_Xndaadh-Nx3bhF35-10">
          <mxGeometry width="50" height="50" relative="1" as="geometry">
            <mxPoint x="1134" y="187" as="sourcePoint" />
            <mxPoint x="1149" y="222" as="targetPoint" />
            <Array as="points">
              <mxPoint x="1107" y="181" />
              <mxPoint x="1132" y="172" />
              <mxPoint x="1149" y="177" />
              <mxPoint x="1158" y="188" />
              <mxPoint x="1155" y="202" />
            </Array>
          </mxGeometry>
        </mxCell>
        <mxCell id="GfJ_Xndaadh-Nx3bhF35-33" value="&lt;font style=&quot;font-size: 14px;&quot;&gt;else&lt;/font&gt;" style="text;html=1;align=center;verticalAlign=middle;whiteSpace=wrap;rounded=0;" vertex="1" parent="GfJ_Xndaadh-Nx3bhF35-75">
          <mxGeometry x="1163" y="169" width="56" height="30" as="geometry" />
        </mxCell>
        <mxCell id="GfJ_Xndaadh-Nx3bhF35-34" value="&lt;b style=&quot;font-size: 30px;&quot;&gt;S4&lt;/b&gt;" style="ellipse;whiteSpace=wrap;html=1;aspect=fixed;fillColor=#71BBFC;strokeColor=#000000;" vertex="1" parent="GfJ_Xndaadh-Nx3bhF35-75">
          <mxGeometry x="787" y="1000" width="100" height="100" as="geometry" />
        </mxCell>
        <mxCell id="GfJ_Xndaadh-Nx3bhF35-35" value="&lt;b style=&quot;font-size: 30px;&quot;&gt;S5&lt;/b&gt;" style="ellipse;whiteSpace=wrap;html=1;aspect=fixed;fillColor=#71BBFC;strokeColor=#000000;" vertex="1" parent="GfJ_Xndaadh-Nx3bhF35-75">
          <mxGeometry x="334" y="828" width="100" height="100" as="geometry" />
        </mxCell>
        <mxCell id="GfJ_Xndaadh-Nx3bhF35-36" value="&lt;b style=&quot;font-size: 30px;&quot;&gt;S6&lt;/b&gt;" style="ellipse;whiteSpace=wrap;html=1;aspect=fixed;fillColor=#71BBFC;strokeColor=#000000;" vertex="1" parent="GfJ_Xndaadh-Nx3bhF35-75">
          <mxGeometry x="215" y="454" width="100" height="100" as="geometry" />
        </mxCell>
        <mxCell id="GfJ_Xndaadh-Nx3bhF35-37" value="&lt;b style=&quot;font-size: 30px;&quot;&gt;S7&lt;/b&gt;" style="ellipse;whiteSpace=wrap;html=1;aspect=fixed;fillColor=#71BBFC;strokeColor=#000000;" vertex="1" parent="GfJ_Xndaadh-Nx3bhF35-75">
          <mxGeometry x="454" y="214" width="100" height="100" as="geometry" />
        </mxCell>
        <mxCell id="GfJ_Xndaadh-Nx3bhF35-39" value="" style="curved=1;endArrow=classic;html=1;rounded=0;exitX=-0.003;exitY=0.656;exitDx=0;exitDy=0;entryX=0.5;entryY=1;entryDx=0;entryDy=0;exitPerimeter=0;" edge="1" parent="GfJ_Xndaadh-Nx3bhF35-75" source="GfJ_Xndaadh-Nx3bhF35-10" target="GfJ_Xndaadh-Nx3bhF35-1">
          <mxGeometry width="50" height="50" relative="1" as="geometry">
            <mxPoint x="1004" y="418" as="sourcePoint" />
            <mxPoint x="800" y="213" as="targetPoint" />
            <Array as="points">
              <mxPoint x="894" y="289" />
            </Array>
          </mxGeometry>
        </mxCell>
        <mxCell id="GfJ_Xndaadh-Nx3bhF35-40" value="&lt;font style=&quot;font-size: 14px;&quot;&gt;pop &amp;amp;&amp;amp; can_read &amp;amp;&amp;amp; !empty / status - 1&lt;/font&gt;" style="text;html=1;align=center;verticalAlign=middle;whiteSpace=wrap;rounded=0;fontStyle=1" vertex="1" parent="GfJ_Xndaadh-Nx3bhF35-75">
          <mxGeometry x="739" y="292" width="256" height="30" as="geometry" />
        </mxCell>
        <mxCell id="GfJ_Xndaadh-Nx3bhF35-41" value="" style="curved=1;endArrow=classic;html=1;rounded=0;exitX=0.802;exitY=0.899;exitDx=0;exitDy=0;entryX=0.5;entryY=1;entryDx=0;entryDy=0;exitPerimeter=0;" edge="1" parent="GfJ_Xndaadh-Nx3bhF35-75" source="GfJ_Xndaadh-Nx3bhF35-34" target="GfJ_Xndaadh-Nx3bhF35-34">
          <mxGeometry width="50" height="50" relative="1" as="geometry">
            <mxPoint x="845" y="1137" as="sourcePoint" />
            <mxPoint x="825" y="1160" as="targetPoint" />
            <Array as="points">
              <mxPoint x="902" y="1108" />
              <mxPoint x="926" y="1144" />
              <mxPoint x="911" y="1174" />
              <mxPoint x="861" y="1161" />
            </Array>
          </mxGeometry>
        </mxCell>
        <mxCell id="GfJ_Xndaadh-Nx3bhF35-42" value="&lt;font style=&quot;font-size: 14px;&quot;&gt;else&lt;/font&gt;" style="text;html=1;align=center;verticalAlign=middle;whiteSpace=wrap;rounded=0;fontStyle=1" vertex="1" parent="GfJ_Xndaadh-Nx3bhF35-75">
          <mxGeometry x="884" y="1174" width="56" height="30" as="geometry" />
        </mxCell>
        <mxCell id="GfJ_Xndaadh-Nx3bhF35-43" value="" style="curved=1;endArrow=classic;html=1;rounded=0;exitX=0.5;exitY=1;exitDx=0;exitDy=0;entryX=1;entryY=1;entryDx=0;entryDy=0;" edge="1" parent="GfJ_Xndaadh-Nx3bhF35-75" source="GfJ_Xndaadh-Nx3bhF35-25" target="GfJ_Xndaadh-Nx3bhF35-34">
          <mxGeometry width="50" height="50" relative="1" as="geometry">
            <mxPoint x="1016" y="863" as="sourcePoint" />
            <mxPoint x="996" y="1202" as="targetPoint" />
            <Array as="points">
              <mxPoint x="1163" y="1103" />
            </Array>
          </mxGeometry>
        </mxCell>
        <mxCell id="GfJ_Xndaadh-Nx3bhF35-44" value="&lt;font style=&quot;font-size: 14px;&quot;&gt;push &amp;amp;&amp;amp; can_write &amp;amp;&amp;amp; !full / status + 1&lt;/font&gt;" style="text;html=1;align=center;verticalAlign=middle;whiteSpace=wrap;rounded=0;fontStyle=1" vertex="1" parent="GfJ_Xndaadh-Nx3bhF35-75">
          <mxGeometry x="1059" y="1086" width="242" height="30" as="geometry" />
        </mxCell>
        <mxCell id="GfJ_Xndaadh-Nx3bhF35-45" value="" style="curved=1;endArrow=classic;html=1;rounded=0;exitX=0.5;exitY=0;exitDx=0;exitDy=0;" edge="1" parent="GfJ_Xndaadh-Nx3bhF35-75" source="GfJ_Xndaadh-Nx3bhF35-34" target="GfJ_Xndaadh-Nx3bhF35-25">
          <mxGeometry width="50" height="50" relative="1" as="geometry">
            <mxPoint x="1094" y="748" as="sourcePoint" />
            <mxPoint x="689" y="905" as="targetPoint" />
            <Array as="points">
              <mxPoint x="975" y="866" />
            </Array>
          </mxGeometry>
        </mxCell>
        <mxCell id="GfJ_Xndaadh-Nx3bhF35-46" value="&lt;span style=&quot;font-size: 14px;&quot;&gt;pop &amp;amp;&amp;amp; can_read &amp;amp;&amp;amp; !empty / status - 1&lt;/span&gt;" style="text;html=1;align=center;verticalAlign=middle;whiteSpace=wrap;rounded=0;fontStyle=1" vertex="1" parent="GfJ_Xndaadh-Nx3bhF35-75">
          <mxGeometry x="850" y="831" width="258" height="30" as="geometry" />
        </mxCell>
        <mxCell id="GfJ_Xndaadh-Nx3bhF35-47" value="" style="curved=1;endArrow=classic;html=1;rounded=0;exitX=0;exitY=1;exitDx=0;exitDy=0;entryX=0;entryY=0.5;entryDx=0;entryDy=0;" edge="1" parent="GfJ_Xndaadh-Nx3bhF35-75" source="GfJ_Xndaadh-Nx3bhF35-35" target="GfJ_Xndaadh-Nx3bhF35-35">
          <mxGeometry width="50" height="50" relative="1" as="geometry">
            <mxPoint x="321" y="913" as="sourcePoint" />
            <mxPoint x="291" y="923" as="targetPoint" />
            <Array as="points">
              <mxPoint x="345" y="946" />
              <mxPoint x="324" y="967" />
              <mxPoint x="300" y="964" />
              <mxPoint x="291" y="935" />
              <mxPoint x="306" y="897" />
            </Array>
          </mxGeometry>
        </mxCell>
        <mxCell id="GfJ_Xndaadh-Nx3bhF35-48" value="&lt;font style=&quot;font-size: 14px;&quot;&gt;else&lt;/font&gt;" style="text;html=1;align=center;verticalAlign=middle;whiteSpace=wrap;rounded=0;fontStyle=1" vertex="1" parent="GfJ_Xndaadh-Nx3bhF35-75">
          <mxGeometry x="229" y="939" width="56" height="30" as="geometry" />
        </mxCell>
        <mxCell id="GfJ_Xndaadh-Nx3bhF35-49" value="" style="curved=1;endArrow=classic;html=1;rounded=0;exitX=1;exitY=0.5;exitDx=0;exitDy=0;entryX=0;entryY=0;entryDx=0;entryDy=0;" edge="1" parent="GfJ_Xndaadh-Nx3bhF35-75" source="GfJ_Xndaadh-Nx3bhF35-35" target="GfJ_Xndaadh-Nx3bhF35-34">
          <mxGeometry width="50" height="50" relative="1" as="geometry">
            <mxPoint x="443" y="993" as="sourcePoint" />
            <mxPoint x="833" y="869" as="targetPoint" />
            <Array as="points">
              <mxPoint x="662" y="839" />
            </Array>
          </mxGeometry>
        </mxCell>
        <mxCell id="GfJ_Xndaadh-Nx3bhF35-52" value="&lt;span style=&quot;font-size: 14px;&quot;&gt;pop &amp;amp;&amp;amp; can_read &amp;amp;&amp;amp; !empty / status - 1&lt;/span&gt;" style="text;html=1;align=center;verticalAlign=middle;whiteSpace=wrap;rounded=0;fontStyle=1" vertex="1" parent="GfJ_Xndaadh-Nx3bhF35-75">
          <mxGeometry x="506" y="831" width="258" height="30" as="geometry" />
        </mxCell>
        <mxCell id="GfJ_Xndaadh-Nx3bhF35-53" value="" style="curved=1;endArrow=classic;html=1;rounded=0;exitX=0;exitY=0.5;exitDx=0;exitDy=0;entryX=1;entryY=1;entryDx=0;entryDy=0;" edge="1" parent="GfJ_Xndaadh-Nx3bhF35-75" source="GfJ_Xndaadh-Nx3bhF35-34" target="GfJ_Xndaadh-Nx3bhF35-35">
          <mxGeometry width="50" height="50" relative="1" as="geometry">
            <mxPoint x="385" y="1010" as="sourcePoint" />
            <mxPoint x="753" y="1147" as="targetPoint" />
            <Array as="points">
              <mxPoint x="541" y="1064" />
            </Array>
          </mxGeometry>
        </mxCell>
        <mxCell id="GfJ_Xndaadh-Nx3bhF35-54" value="&lt;font style=&quot;font-size: 14px;&quot;&gt;push &amp;amp;&amp;amp; can_write &amp;amp;&amp;amp; !full / status + 1&lt;/font&gt;" style="text;html=1;align=center;verticalAlign=middle;whiteSpace=wrap;rounded=0;fontStyle=1" vertex="1" parent="GfJ_Xndaadh-Nx3bhF35-75">
          <mxGeometry x="415" y="1062" width="242" height="30" as="geometry" />
        </mxCell>
        <mxCell id="GfJ_Xndaadh-Nx3bhF35-56" value="" style="curved=1;endArrow=classic;html=1;rounded=0;exitX=0;exitY=0;exitDx=0;exitDy=0;entryX=0;entryY=1;entryDx=0;entryDy=0;" edge="1" parent="GfJ_Xndaadh-Nx3bhF35-75" source="GfJ_Xndaadh-Nx3bhF35-35" target="GfJ_Xndaadh-Nx3bhF35-36">
          <mxGeometry width="50" height="50" relative="1" as="geometry">
            <mxPoint x="521" y="764" as="sourcePoint" />
            <mxPoint x="153" y="627" as="targetPoint" />
            <Array as="points">
              <mxPoint x="228" y="750" />
            </Array>
          </mxGeometry>
        </mxCell>
        <mxCell id="GfJ_Xndaadh-Nx3bhF35-57" value="" style="curved=1;endArrow=classic;html=1;rounded=0;exitX=1;exitY=1;exitDx=0;exitDy=0;entryX=1;entryY=0;entryDx=0;entryDy=0;" edge="1" parent="GfJ_Xndaadh-Nx3bhF35-75" source="GfJ_Xndaadh-Nx3bhF35-36" target="GfJ_Xndaadh-Nx3bhF35-35">
          <mxGeometry width="50" height="50" relative="1" as="geometry">
            <mxPoint x="326" y="583" as="sourcePoint" />
            <mxPoint x="420" y="827" as="targetPoint" />
            <Array as="points">
              <mxPoint x="447" y="649" />
            </Array>
          </mxGeometry>
        </mxCell>
        <mxCell id="GfJ_Xndaadh-Nx3bhF35-58" value="&lt;span style=&quot;font-size: 14px;&quot;&gt;pop &amp;amp;&amp;amp; can_read &amp;amp;&amp;amp; !empty / status - 1&lt;/span&gt;" style="text;html=1;align=center;verticalAlign=middle;whiteSpace=wrap;rounded=0;fontStyle=1" vertex="1" parent="GfJ_Xndaadh-Nx3bhF35-75">
          <mxGeometry x="414" y="634" width="258" height="30" as="geometry" />
        </mxCell>
        <mxCell id="GfJ_Xndaadh-Nx3bhF35-59" value="&lt;font style=&quot;font-size: 14px;&quot;&gt;push &amp;amp;&amp;amp; can_write &amp;amp;&amp;amp; !full / status + 1&lt;/font&gt;" style="text;html=1;align=center;verticalAlign=middle;whiteSpace=wrap;rounded=0;fontStyle=1" vertex="1" parent="GfJ_Xndaadh-Nx3bhF35-75">
          <mxGeometry y="725" width="242" height="30" as="geometry" />
        </mxCell>
        <mxCell id="GfJ_Xndaadh-Nx3bhF35-60" value="" style="curved=1;endArrow=classic;html=1;rounded=0;exitX=0;exitY=0;exitDx=0;exitDy=0;entryX=0;entryY=0.5;entryDx=0;entryDy=0;" edge="1" parent="GfJ_Xndaadh-Nx3bhF35-75" source="GfJ_Xndaadh-Nx3bhF35-36" target="GfJ_Xndaadh-Nx3bhF35-37">
          <mxGeometry width="50" height="50" relative="1" as="geometry">
            <mxPoint x="223" y="545" as="sourcePoint" />
            <mxPoint x="104" y="241" as="targetPoint" />
            <Array as="points">
              <mxPoint x="268" y="293" />
            </Array>
          </mxGeometry>
        </mxCell>
        <mxCell id="GfJ_Xndaadh-Nx3bhF35-61" value="&lt;font style=&quot;font-size: 14px;&quot;&gt;push &amp;amp;&amp;amp; can_write &amp;amp;&amp;amp; !full / status + 1&lt;/font&gt;" style="text;html=1;align=center;verticalAlign=middle;whiteSpace=wrap;rounded=0;fontStyle=1" vertex="1" parent="GfJ_Xndaadh-Nx3bhF35-75">
          <mxGeometry x="34" y="304" width="242" height="30" as="geometry" />
        </mxCell>
        <mxCell id="GfJ_Xndaadh-Nx3bhF35-62" value="" style="curved=1;endArrow=classic;html=1;rounded=0;exitX=0.5;exitY=1;exitDx=0;exitDy=0;entryX=0.993;entryY=0.46;entryDx=0;entryDy=0;entryPerimeter=0;" edge="1" parent="GfJ_Xndaadh-Nx3bhF35-75" source="GfJ_Xndaadh-Nx3bhF35-37" target="GfJ_Xndaadh-Nx3bhF35-36">
          <mxGeometry width="50" height="50" relative="1" as="geometry">
            <mxPoint x="410" y="314" as="sourcePoint" />
            <mxPoint x="529" y="618" as="targetPoint" />
            <Array as="points">
              <mxPoint x="458" y="464" />
            </Array>
          </mxGeometry>
        </mxCell>
        <mxCell id="GfJ_Xndaadh-Nx3bhF35-63" value="&lt;span style=&quot;font-size: 14px;&quot;&gt;pop &amp;amp;&amp;amp; can_read &amp;amp;&amp;amp; !empty / status - 1&lt;/span&gt;" style="text;html=1;align=center;verticalAlign=middle;whiteSpace=wrap;rounded=0;fontStyle=1" vertex="1" parent="GfJ_Xndaadh-Nx3bhF35-75">
          <mxGeometry x="414" y="469" width="258" height="30" as="geometry" />
        </mxCell>
        <mxCell id="GfJ_Xndaadh-Nx3bhF35-64" value="" style="curved=1;endArrow=classic;html=1;rounded=0;exitX=0;exitY=0.5;exitDx=0;exitDy=0;entryX=0.089;entryY=0.229;entryDx=0;entryDy=0;entryPerimeter=0;" edge="1" parent="GfJ_Xndaadh-Nx3bhF35-75" source="GfJ_Xndaadh-Nx3bhF35-36" target="GfJ_Xndaadh-Nx3bhF35-36">
          <mxGeometry width="50" height="50" relative="1" as="geometry">
            <mxPoint x="177" y="500" as="sourcePoint" />
            <mxPoint x="162" y="465" as="targetPoint" />
            <Array as="points">
              <mxPoint x="202" y="523" />
              <mxPoint x="163" y="541" />
              <mxPoint x="129" y="540" />
              <mxPoint x="115" y="502" />
              <mxPoint x="152" y="478" />
            </Array>
          </mxGeometry>
        </mxCell>
        <mxCell id="GfJ_Xndaadh-Nx3bhF35-65" value="&lt;font style=&quot;font-size: 14px;&quot;&gt;else&lt;/font&gt;" style="text;html=1;align=center;verticalAlign=middle;whiteSpace=wrap;rounded=0;fontStyle=1" vertex="1" parent="GfJ_Xndaadh-Nx3bhF35-75">
          <mxGeometry x="51" y="499" width="56" height="30" as="geometry" />
        </mxCell>
        <mxCell id="GfJ_Xndaadh-Nx3bhF35-66" value="&lt;font style=&quot;font-size: 14px;&quot;&gt;else&lt;/font&gt;" style="text;html=1;align=center;verticalAlign=middle;whiteSpace=wrap;rounded=0;fontStyle=1" vertex="1" parent="GfJ_Xndaadh-Nx3bhF35-75">
          <mxGeometry x="445" y="123" width="56" height="30" as="geometry" />
        </mxCell>
        <mxCell id="GfJ_Xndaadh-Nx3bhF35-68" value="" style="curved=1;endArrow=classic;html=1;rounded=0;exitX=0;exitY=0;exitDx=0;exitDy=0;entryX=0.5;entryY=0;entryDx=0;entryDy=0;" edge="1" parent="GfJ_Xndaadh-Nx3bhF35-75" source="GfJ_Xndaadh-Nx3bhF35-37" target="GfJ_Xndaadh-Nx3bhF35-37">
          <mxGeometry width="50" height="50" relative="1" as="geometry">
            <mxPoint x="572" y="180.10000000000002" as="sourcePoint" />
            <mxPoint x="581" y="153.10000000000002" as="targetPoint" />
            <Array as="points">
              <mxPoint x="454" y="205" />
              <mxPoint x="449" y="176" />
              <mxPoint x="466" y="154" />
              <mxPoint x="503" y="165" />
            </Array>
          </mxGeometry>
        </mxCell>
        <mxCell id="GfJ_Xndaadh-Nx3bhF35-69" value="" style="curved=1;endArrow=classic;html=1;rounded=0;exitX=1;exitY=0;exitDx=0;exitDy=0;entryX=0;entryY=0.5;entryDx=0;entryDy=0;" edge="1" parent="GfJ_Xndaadh-Nx3bhF35-75" source="GfJ_Xndaadh-Nx3bhF35-37" target="GfJ_Xndaadh-Nx3bhF35-1">
          <mxGeometry width="50" height="50" relative="1" as="geometry">
            <mxPoint x="530" y="360" as="sourcePoint" />
            <mxPoint x="754" y="155" as="targetPoint" />
            <Array as="points">
              <mxPoint x="642" y="138" />
            </Array>
          </mxGeometry>
        </mxCell>
        <mxCell id="GfJ_Xndaadh-Nx3bhF35-70" value="!rst" style="text;html=1;align=center;verticalAlign=middle;whiteSpace=wrap;rounded=0;fontStyle=1" vertex="1" parent="GfJ_Xndaadh-Nx3bhF35-75">
          <mxGeometry x="631" y="133" width="28" height="16" as="geometry" />
        </mxCell>
      </root>
    </mxGraphModel>
  </diagram>
  <diagram id="FMfu39Ae00vMmc00N9Xh" name="Schematic Diagram">
    <mxGraphModel dx="3123" dy="1265" grid="0" gridSize="10" guides="1" tooltips="1" connect="1" arrows="1" fold="1" page="1" pageScale="1" pageWidth="850" pageHeight="1100" math="0" shadow="0">
      <root>
        <mxCell id="0" />
        <mxCell id="1" parent="0" />
        <mxCell id="-ACHOMhiO5MB73_FvKfa-25" value="" style="group" vertex="1" connectable="0" parent="1">
          <mxGeometry x="80" y="59" width="249" height="114" as="geometry" />
        </mxCell>
        <mxCell id="-ACHOMhiO5MB73_FvKfa-2" value="8-&lt;span style=&quot;background-color: initial;&quot;&gt;Deep FIFO&lt;/span&gt;" style="rounded=0;whiteSpace=wrap;html=1;fillColor=#fff2cc;strokeColor=#000000;" vertex="1" parent="-ACHOMhiO5MB73_FvKfa-25">
          <mxGeometry x="100" width="64" height="114" as="geometry" />
        </mxCell>
        <mxCell id="-ACHOMhiO5MB73_FvKfa-4" value="" style="endArrow=classic;html=1;rounded=0;entryX=0;entryY=0.097;entryDx=0;entryDy=0;entryPerimeter=0;strokeWidth=1;endSize=1;" edge="1" parent="-ACHOMhiO5MB73_FvKfa-25">
          <mxGeometry width="50" height="50" relative="1" as="geometry">
            <mxPoint x="64" y="104.98999999999998" as="sourcePoint" />
            <mxPoint x="96" y="105.00999999999999" as="targetPoint" />
          </mxGeometry>
        </mxCell>
        <mxCell id="-ACHOMhiO5MB73_FvKfa-5" value="" style="endArrow=classic;html=1;rounded=0;entryX=0;entryY=0.097;entryDx=0;entryDy=0;entryPerimeter=0;strokeWidth=1;endSize=1;" edge="1" parent="-ACHOMhiO5MB73_FvKfa-25">
          <mxGeometry width="50" height="50" relative="1" as="geometry">
            <mxPoint x="68" y="93" as="sourcePoint" />
            <mxPoint x="100" y="93.02000000000001" as="targetPoint" />
          </mxGeometry>
        </mxCell>
        <mxCell id="-ACHOMhiO5MB73_FvKfa-6" value="" style="ellipse;whiteSpace=wrap;html=1;aspect=fixed;rounded=0;strokeColor=#000000;align=center;verticalAlign=middle;fontFamily=Helvetica;fontSize=12;fontColor=default;fillColor=#fff2cc;strokeWidth=0.3;" vertex="1" parent="-ACHOMhiO5MB73_FvKfa-25">
          <mxGeometry x="96" y="103" width="4" height="4" as="geometry" />
        </mxCell>
        <mxCell id="-ACHOMhiO5MB73_FvKfa-7" value="&lt;font style=&quot;font-size: 8px;&quot;&gt;rst&lt;/font&gt;" style="text;html=1;align=center;verticalAlign=middle;whiteSpace=wrap;rounded=0;" vertex="1" parent="-ACHOMhiO5MB73_FvKfa-25">
          <mxGeometry x="45" y="102.62" width="20" height="4.38" as="geometry" />
        </mxCell>
        <mxCell id="-ACHOMhiO5MB73_FvKfa-8" value="&lt;font style=&quot;font-size: 8px;&quot;&gt;clk&lt;/font&gt;" style="text;html=1;align=center;verticalAlign=middle;whiteSpace=wrap;rounded=0;" vertex="1" parent="-ACHOMhiO5MB73_FvKfa-25">
          <mxGeometry x="42" y="89" width="32" height="6" as="geometry" />
        </mxCell>
        <mxCell id="-ACHOMhiO5MB73_FvKfa-9" value="" style="endArrow=classic;html=1;rounded=0;entryX=0;entryY=0.097;entryDx=0;entryDy=0;entryPerimeter=0;strokeWidth=1;endSize=1;" edge="1" parent="-ACHOMhiO5MB73_FvKfa-25">
          <mxGeometry width="50" height="50" relative="1" as="geometry">
            <mxPoint x="41" y="75" as="sourcePoint" />
            <mxPoint x="100" y="75.02000000000001" as="targetPoint" />
          </mxGeometry>
        </mxCell>
        <mxCell id="-ACHOMhiO5MB73_FvKfa-10" value="" style="endArrow=classic;html=1;rounded=0;entryX=0;entryY=0.097;entryDx=0;entryDy=0;entryPerimeter=0;strokeWidth=1;endSize=1;" edge="1" parent="-ACHOMhiO5MB73_FvKfa-25">
          <mxGeometry width="50" height="50" relative="1" as="geometry">
            <mxPoint x="41" y="64" as="sourcePoint" />
            <mxPoint x="100" y="64.02000000000001" as="targetPoint" />
          </mxGeometry>
        </mxCell>
        <mxCell id="-ACHOMhiO5MB73_FvKfa-11" value="&lt;font style=&quot;font-size: 6px;&quot;&gt;write_en&lt;/font&gt;" style="text;html=1;align=center;verticalAlign=middle;whiteSpace=wrap;rounded=0;fontSize=6;" vertex="1" parent="-ACHOMhiO5MB73_FvKfa-25">
          <mxGeometry x="13" y="61" width="28" height="6" as="geometry" />
        </mxCell>
        <mxCell id="-ACHOMhiO5MB73_FvKfa-12" value="&lt;font style=&quot;font-size: 6px;&quot;&gt;read_en&lt;/font&gt;" style="text;html=1;align=center;verticalAlign=middle;whiteSpace=wrap;rounded=0;fontSize=6;" vertex="1" parent="-ACHOMhiO5MB73_FvKfa-25">
          <mxGeometry x="13" y="72" width="22" height="6" as="geometry" />
        </mxCell>
        <mxCell id="-ACHOMhiO5MB73_FvKfa-13" value="" style="endArrow=classic;html=1;rounded=0;entryX=0;entryY=0.097;entryDx=0;entryDy=0;entryPerimeter=0;strokeWidth=1;endSize=1;" edge="1" parent="-ACHOMhiO5MB73_FvKfa-25">
          <mxGeometry width="50" height="50" relative="1" as="geometry">
            <mxPoint x="41" y="11" as="sourcePoint" />
            <mxPoint x="100" y="11.02000000000001" as="targetPoint" />
          </mxGeometry>
        </mxCell>
        <mxCell id="-ACHOMhiO5MB73_FvKfa-14" value="" style="endArrow=classic;html=1;rounded=0;entryX=0;entryY=0.097;entryDx=0;entryDy=0;entryPerimeter=0;strokeWidth=1;endSize=1;" edge="1" parent="-ACHOMhiO5MB73_FvKfa-25">
          <mxGeometry width="50" height="50" relative="1" as="geometry">
            <mxPoint x="66" y="26" as="sourcePoint" />
            <mxPoint x="100" y="26.02000000000001" as="targetPoint" />
          </mxGeometry>
        </mxCell>
        <mxCell id="-ACHOMhiO5MB73_FvKfa-15" value="" style="endArrow=classic;html=1;rounded=0;entryX=0;entryY=0.097;entryDx=0;entryDy=0;entryPerimeter=0;strokeWidth=1;endSize=1;" edge="1" parent="-ACHOMhiO5MB73_FvKfa-25">
          <mxGeometry width="50" height="50" relative="1" as="geometry">
            <mxPoint x="66" y="39" as="sourcePoint" />
            <mxPoint x="100" y="39.02000000000001" as="targetPoint" />
          </mxGeometry>
        </mxCell>
        <mxCell id="-ACHOMhiO5MB73_FvKfa-16" value="&lt;font style=&quot;font-size: 6px;&quot;&gt;push&lt;/font&gt;" style="text;html=1;align=center;verticalAlign=middle;whiteSpace=wrap;rounded=0;fontSize=6;" vertex="1" parent="-ACHOMhiO5MB73_FvKfa-25">
          <mxGeometry x="38" y="23" width="28" height="6" as="geometry" />
        </mxCell>
        <mxCell id="-ACHOMhiO5MB73_FvKfa-17" value="&lt;font style=&quot;font-size: 6px;&quot;&gt;pop&lt;/font&gt;" style="text;html=1;align=center;verticalAlign=middle;whiteSpace=wrap;rounded=0;fontSize=6;" vertex="1" parent="-ACHOMhiO5MB73_FvKfa-25">
          <mxGeometry x="39" y="36" width="28" height="6" as="geometry" />
        </mxCell>
        <mxCell id="-ACHOMhiO5MB73_FvKfa-18" value="&lt;font style=&quot;font-size: 6px;&quot;&gt;[7:0] data_in&lt;/font&gt;" style="text;html=1;align=center;verticalAlign=middle;whiteSpace=wrap;rounded=0;fontSize=6;" vertex="1" parent="-ACHOMhiO5MB73_FvKfa-25">
          <mxGeometry y="8" width="40" height="6" as="geometry" />
        </mxCell>
        <mxCell id="-ACHOMhiO5MB73_FvKfa-19" value="" style="endArrow=classic;html=1;rounded=0;strokeWidth=1;endSize=1;" edge="1" parent="-ACHOMhiO5MB73_FvKfa-25">
          <mxGeometry width="50" height="50" relative="1" as="geometry">
            <mxPoint x="164" y="11" as="sourcePoint" />
            <mxPoint x="206" y="11" as="targetPoint" />
          </mxGeometry>
        </mxCell>
        <mxCell id="-ACHOMhiO5MB73_FvKfa-20" value="&lt;font style=&quot;font-size: 6px;&quot;&gt;[7:0] data_out&lt;/font&gt;" style="text;html=1;align=center;verticalAlign=middle;whiteSpace=wrap;rounded=0;fontSize=6;" vertex="1" parent="-ACHOMhiO5MB73_FvKfa-25">
          <mxGeometry x="209" y="8" width="40" height="6" as="geometry" />
        </mxCell>
        <mxCell id="-ACHOMhiO5MB73_FvKfa-21" value="" style="endArrow=classic;html=1;rounded=0;entryX=0;entryY=0.097;entryDx=0;entryDy=0;entryPerimeter=0;strokeWidth=1;endSize=1;" edge="1" parent="-ACHOMhiO5MB73_FvKfa-25">
          <mxGeometry width="50" height="50" relative="1" as="geometry">
            <mxPoint x="164" y="48" as="sourcePoint" />
            <mxPoint x="198" y="48.02000000000001" as="targetPoint" />
          </mxGeometry>
        </mxCell>
        <mxCell id="-ACHOMhiO5MB73_FvKfa-22" value="" style="endArrow=classic;html=1;rounded=0;entryX=0;entryY=0.097;entryDx=0;entryDy=0;entryPerimeter=0;strokeWidth=1;endSize=1;" edge="1" parent="-ACHOMhiO5MB73_FvKfa-25">
          <mxGeometry width="50" height="50" relative="1" as="geometry">
            <mxPoint x="164" y="61" as="sourcePoint" />
            <mxPoint x="198" y="61.02000000000001" as="targetPoint" />
          </mxGeometry>
        </mxCell>
        <mxCell id="-ACHOMhiO5MB73_FvKfa-23" value="&lt;font style=&quot;font-size: 6px;&quot;&gt;full&lt;/font&gt;" style="text;html=1;align=center;verticalAlign=middle;whiteSpace=wrap;rounded=0;fontSize=6;" vertex="1" parent="-ACHOMhiO5MB73_FvKfa-25">
          <mxGeometry x="199" y="45" width="28" height="6" as="geometry" />
        </mxCell>
        <mxCell id="-ACHOMhiO5MB73_FvKfa-24" value="&lt;font style=&quot;font-size: 6px;&quot;&gt;empty&lt;/font&gt;" style="text;html=1;align=center;verticalAlign=middle;whiteSpace=wrap;rounded=0;fontSize=6;" vertex="1" parent="-ACHOMhiO5MB73_FvKfa-25">
          <mxGeometry x="199" y="58" width="28" height="6" as="geometry" />
        </mxCell>
        <mxCell id="-ACHOMhiO5MB73_FvKfa-161" value="" style="group" vertex="1" connectable="0" parent="1">
          <mxGeometry x="-8" y="367" width="1026" height="516" as="geometry" />
        </mxCell>
        <mxCell id="-ACHOMhiO5MB73_FvKfa-159" value="" style="rounded=0;whiteSpace=wrap;html=1;fillColor=none;dashed=1;strokeColor=#6B6B6B;strokeWidth=2;" vertex="1" parent="-ACHOMhiO5MB73_FvKfa-161">
          <mxGeometry x="111" width="768" height="516" as="geometry" />
        </mxCell>
        <mxCell id="-ACHOMhiO5MB73_FvKfa-61" value="" style="rounded=0;whiteSpace=wrap;html=1;fillColor=none;dashed=1;dashPattern=8 8;strokeColor=#6c8ebf;strokeWidth=1;" vertex="1" parent="-ACHOMhiO5MB73_FvKfa-161">
          <mxGeometry x="292" y="26" width="267" height="345" as="geometry" />
        </mxCell>
        <mxCell id="-ACHOMhiO5MB73_FvKfa-38" value="" style="group" vertex="1" connectable="0" parent="-ACHOMhiO5MB73_FvKfa-161">
          <mxGeometry x="308" y="56" width="228" height="16" as="geometry" />
        </mxCell>
        <mxCell id="-ACHOMhiO5MB73_FvKfa-71" style="edgeStyle=orthogonalEdgeStyle;rounded=0;orthogonalLoop=1;jettySize=auto;html=1;exitX=0.5;exitY=0;exitDx=0;exitDy=0;startArrow=classic;startFill=1;endArrow=none;endFill=0;fillColor=#dae8fc;strokeColor=#6c8ebf;" edge="1" parent="-ACHOMhiO5MB73_FvKfa-38" source="-ACHOMhiO5MB73_FvKfa-26">
          <mxGeometry relative="1" as="geometry">
            <mxPoint x="-212" y="-20" as="targetPoint" />
            <Array as="points">
              <mxPoint x="114" y="-20" />
              <mxPoint x="-212" y="-20" />
            </Array>
          </mxGeometry>
        </mxCell>
        <mxCell id="-ACHOMhiO5MB73_FvKfa-26" value="" style="rounded=0;whiteSpace=wrap;html=1;fillColor=#dae8fc;strokeColor=#6c8ebf;" vertex="1" parent="-ACHOMhiO5MB73_FvKfa-38">
          <mxGeometry width="228" height="16" as="geometry" />
        </mxCell>
        <mxCell id="-ACHOMhiO5MB73_FvKfa-27" value="" style="triangle;whiteSpace=wrap;html=1;rotation=-90;fillColor=#dae8fc;strokeColor=#6c8ebf;" vertex="1" parent="-ACHOMhiO5MB73_FvKfa-38">
          <mxGeometry x="158" y="3" width="10" height="16" as="geometry" />
        </mxCell>
        <mxCell id="-ACHOMhiO5MB73_FvKfa-39" value="" style="group" vertex="1" connectable="0" parent="-ACHOMhiO5MB73_FvKfa-161">
          <mxGeometry x="308" y="95" width="228" height="16" as="geometry" />
        </mxCell>
        <mxCell id="-ACHOMhiO5MB73_FvKfa-77" style="edgeStyle=orthogonalEdgeStyle;rounded=0;orthogonalLoop=1;jettySize=auto;html=1;exitX=0.25;exitY=1;exitDx=0;exitDy=0;endArrow=none;endFill=0;fillColor=#dae8fc;strokeColor=#6c8ebf;" edge="1" parent="-ACHOMhiO5MB73_FvKfa-39" source="-ACHOMhiO5MB73_FvKfa-40">
          <mxGeometry relative="1" as="geometry">
            <mxPoint x="-59" y="31" as="targetPoint" />
            <Array as="points">
              <mxPoint x="57" y="31" />
              <mxPoint x="-59" y="31" />
            </Array>
          </mxGeometry>
        </mxCell>
        <mxCell id="-ACHOMhiO5MB73_FvKfa-40" value="" style="rounded=0;whiteSpace=wrap;html=1;fillColor=#dae8fc;strokeColor=#6c8ebf;" vertex="1" parent="-ACHOMhiO5MB73_FvKfa-39">
          <mxGeometry width="228" height="16" as="geometry" />
        </mxCell>
        <mxCell id="-ACHOMhiO5MB73_FvKfa-41" value="" style="triangle;whiteSpace=wrap;html=1;rotation=-90;fillColor=#dae8fc;strokeColor=#6c8ebf;" vertex="1" parent="-ACHOMhiO5MB73_FvKfa-39">
          <mxGeometry x="158" y="3" width="10" height="16" as="geometry" />
        </mxCell>
        <mxCell id="-ACHOMhiO5MB73_FvKfa-42" value="" style="group" vertex="1" connectable="0" parent="-ACHOMhiO5MB73_FvKfa-161">
          <mxGeometry x="308" y="136" width="228" height="16" as="geometry" />
        </mxCell>
        <mxCell id="-ACHOMhiO5MB73_FvKfa-78" style="edgeStyle=orthogonalEdgeStyle;rounded=0;orthogonalLoop=1;jettySize=auto;html=1;exitX=0.25;exitY=1;exitDx=0;exitDy=0;endArrow=none;endFill=0;fillColor=#dae8fc;strokeColor=#6c8ebf;" edge="1" parent="-ACHOMhiO5MB73_FvKfa-42" source="-ACHOMhiO5MB73_FvKfa-43">
          <mxGeometry relative="1" as="geometry">
            <mxPoint x="-59.24590163934408" y="27.918032786885306" as="targetPoint" />
            <Array as="points">
              <mxPoint x="57" y="28" />
              <mxPoint x="-59" y="28" />
            </Array>
          </mxGeometry>
        </mxCell>
        <mxCell id="-ACHOMhiO5MB73_FvKfa-43" value="" style="rounded=0;whiteSpace=wrap;html=1;fillColor=#dae8fc;strokeColor=#6c8ebf;" vertex="1" parent="-ACHOMhiO5MB73_FvKfa-42">
          <mxGeometry width="228" height="16" as="geometry" />
        </mxCell>
        <mxCell id="-ACHOMhiO5MB73_FvKfa-44" value="" style="triangle;whiteSpace=wrap;html=1;rotation=-90;fillColor=#dae8fc;strokeColor=#6c8ebf;" vertex="1" parent="-ACHOMhiO5MB73_FvKfa-42">
          <mxGeometry x="158" y="3" width="10" height="16" as="geometry" />
        </mxCell>
        <mxCell id="-ACHOMhiO5MB73_FvKfa-46" value="" style="group" vertex="1" connectable="0" parent="-ACHOMhiO5MB73_FvKfa-161">
          <mxGeometry x="308" y="250" width="228" height="16" as="geometry" />
        </mxCell>
        <mxCell id="-ACHOMhiO5MB73_FvKfa-81" style="edgeStyle=orthogonalEdgeStyle;rounded=0;orthogonalLoop=1;jettySize=auto;html=1;exitX=0.25;exitY=1;exitDx=0;exitDy=0;endArrow=none;endFill=0;fillColor=#dae8fc;strokeColor=#6c8ebf;" edge="1" parent="-ACHOMhiO5MB73_FvKfa-46" source="-ACHOMhiO5MB73_FvKfa-47">
          <mxGeometry relative="1" as="geometry">
            <mxPoint x="-59" y="-14" as="targetPoint" />
            <Array as="points">
              <mxPoint x="57" y="27" />
              <mxPoint x="-59" y="27" />
            </Array>
          </mxGeometry>
        </mxCell>
        <mxCell id="-ACHOMhiO5MB73_FvKfa-47" value="" style="rounded=0;whiteSpace=wrap;html=1;fillColor=#dae8fc;strokeColor=#6c8ebf;" vertex="1" parent="-ACHOMhiO5MB73_FvKfa-46">
          <mxGeometry width="228" height="16" as="geometry" />
        </mxCell>
        <mxCell id="-ACHOMhiO5MB73_FvKfa-48" value="" style="triangle;whiteSpace=wrap;html=1;rotation=-90;fillColor=#dae8fc;strokeColor=#6c8ebf;" vertex="1" parent="-ACHOMhiO5MB73_FvKfa-46">
          <mxGeometry x="158" y="3" width="10" height="16" as="geometry" />
        </mxCell>
        <mxCell id="-ACHOMhiO5MB73_FvKfa-49" value="" style="group" vertex="1" connectable="0" parent="-ACHOMhiO5MB73_FvKfa-161">
          <mxGeometry x="308" y="209" width="228" height="16" as="geometry" />
        </mxCell>
        <mxCell id="-ACHOMhiO5MB73_FvKfa-80" style="edgeStyle=orthogonalEdgeStyle;rounded=0;orthogonalLoop=1;jettySize=auto;html=1;exitX=0.25;exitY=1;exitDx=0;exitDy=0;endArrow=none;endFill=0;fillColor=#dae8fc;strokeColor=#6c8ebf;" edge="1" parent="-ACHOMhiO5MB73_FvKfa-49" source="-ACHOMhiO5MB73_FvKfa-50">
          <mxGeometry relative="1" as="geometry">
            <mxPoint x="-59" y="-10" as="targetPoint" />
            <Array as="points">
              <mxPoint x="57" y="27" />
              <mxPoint x="-59" y="27" />
            </Array>
          </mxGeometry>
        </mxCell>
        <mxCell id="-ACHOMhiO5MB73_FvKfa-50" value="" style="rounded=0;whiteSpace=wrap;html=1;fillColor=#dae8fc;strokeColor=#6c8ebf;" vertex="1" parent="-ACHOMhiO5MB73_FvKfa-49">
          <mxGeometry width="228" height="16" as="geometry" />
        </mxCell>
        <mxCell id="-ACHOMhiO5MB73_FvKfa-51" value="" style="triangle;whiteSpace=wrap;html=1;rotation=-90;fillColor=#dae8fc;strokeColor=#6c8ebf;" vertex="1" parent="-ACHOMhiO5MB73_FvKfa-49">
          <mxGeometry x="158" y="3" width="10" height="16" as="geometry" />
        </mxCell>
        <mxCell id="-ACHOMhiO5MB73_FvKfa-52" value="" style="group" vertex="1" connectable="0" parent="-ACHOMhiO5MB73_FvKfa-161">
          <mxGeometry x="308" y="171" width="228" height="16" as="geometry" />
        </mxCell>
        <mxCell id="-ACHOMhiO5MB73_FvKfa-79" style="edgeStyle=orthogonalEdgeStyle;rounded=0;orthogonalLoop=1;jettySize=auto;html=1;exitX=0.25;exitY=1;exitDx=0;exitDy=0;endArrow=none;endFill=0;fillColor=#dae8fc;strokeColor=#6c8ebf;" edge="1" parent="-ACHOMhiO5MB73_FvKfa-52" source="-ACHOMhiO5MB73_FvKfa-53">
          <mxGeometry relative="1" as="geometry">
            <mxPoint x="-59" y="-6.666666666666629" as="targetPoint" />
            <Array as="points">
              <mxPoint x="57" y="28" />
              <mxPoint x="-59" y="28" />
            </Array>
          </mxGeometry>
        </mxCell>
        <mxCell id="-ACHOMhiO5MB73_FvKfa-53" value="" style="rounded=0;whiteSpace=wrap;html=1;fillColor=#dae8fc;strokeColor=#6c8ebf;" vertex="1" parent="-ACHOMhiO5MB73_FvKfa-52">
          <mxGeometry width="228" height="16" as="geometry" />
        </mxCell>
        <mxCell id="-ACHOMhiO5MB73_FvKfa-54" value="" style="triangle;whiteSpace=wrap;html=1;rotation=-90;fillColor=#dae8fc;strokeColor=#6c8ebf;" vertex="1" parent="-ACHOMhiO5MB73_FvKfa-52">
          <mxGeometry x="158" y="3" width="10" height="16" as="geometry" />
        </mxCell>
        <mxCell id="-ACHOMhiO5MB73_FvKfa-55" value="" style="group" vertex="1" connectable="0" parent="-ACHOMhiO5MB73_FvKfa-161">
          <mxGeometry x="308" y="288" width="228" height="16" as="geometry" />
        </mxCell>
        <mxCell id="-ACHOMhiO5MB73_FvKfa-82" style="edgeStyle=orthogonalEdgeStyle;rounded=0;orthogonalLoop=1;jettySize=auto;html=1;exitX=0.25;exitY=1;exitDx=0;exitDy=0;endArrow=none;endFill=0;fillColor=#dae8fc;strokeColor=#6c8ebf;" edge="1" parent="-ACHOMhiO5MB73_FvKfa-55" source="-ACHOMhiO5MB73_FvKfa-56">
          <mxGeometry relative="1" as="geometry">
            <mxPoint x="-59" y="-11" as="targetPoint" />
            <Array as="points">
              <mxPoint x="57" y="27" />
              <mxPoint x="-59" y="27" />
            </Array>
          </mxGeometry>
        </mxCell>
        <mxCell id="-ACHOMhiO5MB73_FvKfa-56" value="" style="rounded=0;whiteSpace=wrap;html=1;fillColor=#dae8fc;strokeColor=#6c8ebf;" vertex="1" parent="-ACHOMhiO5MB73_FvKfa-55">
          <mxGeometry width="228" height="16" as="geometry" />
        </mxCell>
        <mxCell id="-ACHOMhiO5MB73_FvKfa-57" value="" style="triangle;whiteSpace=wrap;html=1;rotation=-90;fillColor=#dae8fc;strokeColor=#6c8ebf;" vertex="1" parent="-ACHOMhiO5MB73_FvKfa-55">
          <mxGeometry x="158" y="3" width="10" height="16" as="geometry" />
        </mxCell>
        <mxCell id="-ACHOMhiO5MB73_FvKfa-58" value="" style="group" vertex="1" connectable="0" parent="-ACHOMhiO5MB73_FvKfa-161">
          <mxGeometry x="308" y="329" width="228" height="16" as="geometry" />
        </mxCell>
        <mxCell id="-ACHOMhiO5MB73_FvKfa-83" style="edgeStyle=orthogonalEdgeStyle;rounded=0;orthogonalLoop=1;jettySize=auto;html=1;exitX=0.25;exitY=1;exitDx=0;exitDy=0;endArrow=none;endFill=0;fillColor=#dae8fc;strokeColor=#6c8ebf;" edge="1" parent="-ACHOMhiO5MB73_FvKfa-58" source="-ACHOMhiO5MB73_FvKfa-59">
          <mxGeometry relative="1" as="geometry">
            <mxPoint x="-59" y="-14" as="targetPoint" />
            <Array as="points">
              <mxPoint x="57" y="26" />
              <mxPoint x="-59" y="26" />
            </Array>
          </mxGeometry>
        </mxCell>
        <mxCell id="-ACHOMhiO5MB73_FvKfa-59" value="" style="rounded=0;whiteSpace=wrap;html=1;fillColor=#dae8fc;strokeColor=#6c8ebf;" vertex="1" parent="-ACHOMhiO5MB73_FvKfa-58">
          <mxGeometry width="228" height="16" as="geometry" />
        </mxCell>
        <mxCell id="-ACHOMhiO5MB73_FvKfa-60" value="" style="triangle;whiteSpace=wrap;html=1;rotation=-90;fillColor=#dae8fc;strokeColor=#6c8ebf;" vertex="1" parent="-ACHOMhiO5MB73_FvKfa-58">
          <mxGeometry x="158" y="3" width="10" height="16" as="geometry" />
        </mxCell>
        <mxCell id="-ACHOMhiO5MB73_FvKfa-64" style="edgeStyle=orthogonalEdgeStyle;rounded=0;orthogonalLoop=1;jettySize=auto;html=1;exitX=0.5;exitY=1;exitDx=0;exitDy=0;entryX=0.5;entryY=0;entryDx=0;entryDy=0;endSize=3;fillColor=#dae8fc;strokeColor=#6c8ebf;" edge="1" parent="-ACHOMhiO5MB73_FvKfa-161" source="-ACHOMhiO5MB73_FvKfa-26" target="-ACHOMhiO5MB73_FvKfa-40">
          <mxGeometry relative="1" as="geometry" />
        </mxCell>
        <mxCell id="-ACHOMhiO5MB73_FvKfa-65" style="edgeStyle=orthogonalEdgeStyle;rounded=0;orthogonalLoop=1;jettySize=auto;html=1;exitX=0.5;exitY=1;exitDx=0;exitDy=0;entryX=0.5;entryY=0;entryDx=0;entryDy=0;endSize=3;fillColor=#dae8fc;strokeColor=#6c8ebf;" edge="1" parent="-ACHOMhiO5MB73_FvKfa-161" source="-ACHOMhiO5MB73_FvKfa-40" target="-ACHOMhiO5MB73_FvKfa-43">
          <mxGeometry relative="1" as="geometry" />
        </mxCell>
        <mxCell id="-ACHOMhiO5MB73_FvKfa-66" style="edgeStyle=orthogonalEdgeStyle;rounded=0;orthogonalLoop=1;jettySize=auto;html=1;exitX=0.5;exitY=1;exitDx=0;exitDy=0;entryX=0.5;entryY=0;entryDx=0;entryDy=0;endSize=3;fillColor=#dae8fc;strokeColor=#6c8ebf;" edge="1" parent="-ACHOMhiO5MB73_FvKfa-161" source="-ACHOMhiO5MB73_FvKfa-43" target="-ACHOMhiO5MB73_FvKfa-53">
          <mxGeometry relative="1" as="geometry" />
        </mxCell>
        <mxCell id="-ACHOMhiO5MB73_FvKfa-67" style="edgeStyle=orthogonalEdgeStyle;rounded=0;orthogonalLoop=1;jettySize=auto;html=1;exitX=0.5;exitY=1;exitDx=0;exitDy=0;entryX=0.5;entryY=0;entryDx=0;entryDy=0;endSize=3;fillColor=#dae8fc;strokeColor=#6c8ebf;" edge="1" parent="-ACHOMhiO5MB73_FvKfa-161" source="-ACHOMhiO5MB73_FvKfa-53" target="-ACHOMhiO5MB73_FvKfa-50">
          <mxGeometry relative="1" as="geometry" />
        </mxCell>
        <mxCell id="-ACHOMhiO5MB73_FvKfa-68" style="edgeStyle=orthogonalEdgeStyle;rounded=0;orthogonalLoop=1;jettySize=auto;html=1;exitX=0.5;exitY=1;exitDx=0;exitDy=0;entryX=0.5;entryY=0;entryDx=0;entryDy=0;endSize=3;fillColor=#dae8fc;strokeColor=#6c8ebf;" edge="1" parent="-ACHOMhiO5MB73_FvKfa-161" source="-ACHOMhiO5MB73_FvKfa-50" target="-ACHOMhiO5MB73_FvKfa-47">
          <mxGeometry relative="1" as="geometry" />
        </mxCell>
        <mxCell id="-ACHOMhiO5MB73_FvKfa-69" style="edgeStyle=orthogonalEdgeStyle;rounded=0;orthogonalLoop=1;jettySize=auto;html=1;exitX=0.5;exitY=1;exitDx=0;exitDy=0;entryX=0.5;entryY=0;entryDx=0;entryDy=0;endSize=3;fillColor=#dae8fc;strokeColor=#6c8ebf;" edge="1" parent="-ACHOMhiO5MB73_FvKfa-161" source="-ACHOMhiO5MB73_FvKfa-47" target="-ACHOMhiO5MB73_FvKfa-56">
          <mxGeometry relative="1" as="geometry" />
        </mxCell>
        <mxCell id="-ACHOMhiO5MB73_FvKfa-70" style="edgeStyle=orthogonalEdgeStyle;rounded=0;orthogonalLoop=1;jettySize=auto;html=1;exitX=0.5;exitY=1;exitDx=0;exitDy=0;entryX=0.5;entryY=0;entryDx=0;entryDy=0;strokeWidth=1;endSize=3;fillColor=#dae8fc;strokeColor=#6c8ebf;" edge="1" parent="-ACHOMhiO5MB73_FvKfa-161" source="-ACHOMhiO5MB73_FvKfa-56" target="-ACHOMhiO5MB73_FvKfa-59">
          <mxGeometry relative="1" as="geometry" />
        </mxCell>
        <mxCell id="-ACHOMhiO5MB73_FvKfa-72" value="&lt;font style=&quot;font-size: 12px;&quot;&gt;[7:0] data_in&lt;/font&gt;" style="text;html=1;align=center;verticalAlign=middle;whiteSpace=wrap;rounded=0;fontSize=7;fontStyle=1" vertex="1" parent="-ACHOMhiO5MB73_FvKfa-161">
          <mxGeometry y="26" width="96" height="18" as="geometry" />
        </mxCell>
        <mxCell id="-ACHOMhiO5MB73_FvKfa-84" style="edgeStyle=orthogonalEdgeStyle;rounded=0;orthogonalLoop=1;jettySize=auto;html=1;exitX=0;exitY=0.25;exitDx=0;exitDy=0;exitPerimeter=0;endArrow=none;endFill=0;fillColor=#dae8fc;strokeColor=#6c8ebf;" edge="1" parent="-ACHOMhiO5MB73_FvKfa-161" source="-ACHOMhiO5MB73_FvKfa-73">
          <mxGeometry relative="1" as="geometry">
            <mxPoint x="62.5151515151515" y="153" as="targetPoint" />
          </mxGeometry>
        </mxCell>
        <mxCell id="-ACHOMhiO5MB73_FvKfa-85" style="edgeStyle=orthogonalEdgeStyle;rounded=0;orthogonalLoop=1;jettySize=auto;html=1;exitX=0;exitY=0.75;exitDx=0;exitDy=0;exitPerimeter=0;endArrow=none;endFill=0;fillColor=#dae8fc;strokeColor=#6c8ebf;" edge="1" parent="-ACHOMhiO5MB73_FvKfa-161" source="-ACHOMhiO5MB73_FvKfa-73">
          <mxGeometry relative="1" as="geometry">
            <mxPoint x="63.72727272727275" y="176.03030303030312" as="targetPoint" />
          </mxGeometry>
        </mxCell>
        <mxCell id="-ACHOMhiO5MB73_FvKfa-73" value="" style="verticalLabelPosition=bottom;shadow=0;dashed=0;align=center;html=1;verticalAlign=top;shape=mxgraph.electrical.logic_gates.logic_gate;operation=and;fillColor=#dae8fc;strokeColor=#6c8ebf;" vertex="1" parent="-ACHOMhiO5MB73_FvKfa-161">
          <mxGeometry x="109" y="142" width="75" height="45" as="geometry" />
        </mxCell>
        <mxCell id="-ACHOMhiO5MB73_FvKfa-95" style="edgeStyle=orthogonalEdgeStyle;rounded=0;orthogonalLoop=1;jettySize=auto;html=1;exitX=1;exitY=0.5;exitDx=0;exitDy=0;exitPerimeter=0;entryX=0;entryY=0.5;entryDx=0;entryDy=0;endArrow=none;endFill=0;fillColor=#dae8fc;strokeColor=#6c8ebf;" edge="1" parent="-ACHOMhiO5MB73_FvKfa-161" source="-ACHOMhiO5MB73_FvKfa-75" target="-ACHOMhiO5MB73_FvKfa-92">
          <mxGeometry relative="1" as="geometry">
            <Array as="points">
              <mxPoint x="218" y="322" />
              <mxPoint x="218" y="446" />
            </Array>
          </mxGeometry>
        </mxCell>
        <mxCell id="-ACHOMhiO5MB73_FvKfa-100" style="edgeStyle=orthogonalEdgeStyle;rounded=0;orthogonalLoop=1;jettySize=auto;html=1;exitX=0;exitY=0.25;exitDx=0;exitDy=0;exitPerimeter=0;endArrow=none;endFill=0;fillColor=#dae8fc;strokeColor=#6c8ebf;" edge="1" parent="-ACHOMhiO5MB73_FvKfa-161" source="-ACHOMhiO5MB73_FvKfa-75">
          <mxGeometry relative="1" as="geometry">
            <mxPoint x="70.40000000000009" y="311.4" as="targetPoint" />
          </mxGeometry>
        </mxCell>
        <mxCell id="-ACHOMhiO5MB73_FvKfa-101" style="edgeStyle=orthogonalEdgeStyle;rounded=0;orthogonalLoop=1;jettySize=auto;html=1;exitX=0;exitY=0.75;exitDx=0;exitDy=0;exitPerimeter=0;endArrow=none;endFill=0;fillColor=#dae8fc;strokeColor=#6c8ebf;" edge="1" parent="-ACHOMhiO5MB73_FvKfa-161" source="-ACHOMhiO5MB73_FvKfa-75">
          <mxGeometry relative="1" as="geometry">
            <mxPoint x="68" y="333.79999999999995" as="targetPoint" />
          </mxGeometry>
        </mxCell>
        <mxCell id="-ACHOMhiO5MB73_FvKfa-75" value="" style="verticalLabelPosition=bottom;shadow=0;dashed=0;align=center;html=1;verticalAlign=top;shape=mxgraph.electrical.logic_gates.logic_gate;operation=and;fillColor=#dae8fc;strokeColor=#6c8ebf;" vertex="1" parent="-ACHOMhiO5MB73_FvKfa-161">
          <mxGeometry x="109" y="300" width="75" height="45" as="geometry" />
        </mxCell>
        <mxCell id="-ACHOMhiO5MB73_FvKfa-76" style="edgeStyle=orthogonalEdgeStyle;rounded=0;orthogonalLoop=1;jettySize=auto;html=1;exitX=0.25;exitY=1;exitDx=0;exitDy=0;entryX=1;entryY=0.5;entryDx=0;entryDy=0;entryPerimeter=0;endArrow=none;endFill=0;fillColor=#dae8fc;strokeColor=#6c8ebf;" edge="1" parent="-ACHOMhiO5MB73_FvKfa-161" source="-ACHOMhiO5MB73_FvKfa-26" target="-ACHOMhiO5MB73_FvKfa-73">
          <mxGeometry relative="1" as="geometry">
            <Array as="points">
              <mxPoint x="365" y="85" />
              <mxPoint x="249" y="85" />
              <mxPoint x="249" y="164" />
              <mxPoint x="184" y="164" />
            </Array>
          </mxGeometry>
        </mxCell>
        <mxCell id="-ACHOMhiO5MB73_FvKfa-88" value="&lt;font style=&quot;font-size: 12px;&quot;&gt;push&lt;/font&gt;" style="text;html=1;align=center;verticalAlign=middle;whiteSpace=wrap;rounded=0;fontSize=7;fontStyle=1" vertex="1" parent="-ACHOMhiO5MB73_FvKfa-161">
          <mxGeometry x="2" y="145" width="62" height="18" as="geometry" />
        </mxCell>
        <mxCell id="-ACHOMhiO5MB73_FvKfa-89" value="&lt;font style=&quot;font-size: 12px;&quot;&gt;write_en&lt;/font&gt;" style="text;html=1;align=center;verticalAlign=middle;whiteSpace=wrap;rounded=0;fontSize=7;fontStyle=1" vertex="1" parent="-ACHOMhiO5MB73_FvKfa-161">
          <mxGeometry x="2" y="164" width="65.44" height="19" as="geometry" />
        </mxCell>
        <mxCell id="-ACHOMhiO5MB73_FvKfa-147" style="edgeStyle=orthogonalEdgeStyle;rounded=0;orthogonalLoop=1;jettySize=auto;html=1;exitX=0.5;exitY=0;exitDx=0;exitDy=0;entryX=1;entryY=0.5;entryDx=0;entryDy=0;endArrow=none;endFill=0;" edge="1" parent="-ACHOMhiO5MB73_FvKfa-161" source="-ACHOMhiO5MB73_FvKfa-90" target="-ACHOMhiO5MB73_FvKfa-106">
          <mxGeometry relative="1" as="geometry" />
        </mxCell>
        <mxCell id="-ACHOMhiO5MB73_FvKfa-90" value="&lt;b&gt;Counter&lt;/b&gt;" style="rounded=0;whiteSpace=wrap;html=1;fillColor=#dae8fc;strokeColor=#6c8ebf;" vertex="1" parent="-ACHOMhiO5MB73_FvKfa-161">
          <mxGeometry x="561" y="404" width="120" height="60" as="geometry" />
        </mxCell>
        <mxCell id="-ACHOMhiO5MB73_FvKfa-94" style="edgeStyle=orthogonalEdgeStyle;rounded=0;orthogonalLoop=1;jettySize=auto;html=1;exitX=0;exitY=0.5;exitDx=0;exitDy=0;endArrow=none;endFill=0;fillColor=#dae8fc;strokeColor=#6c8ebf;" edge="1" parent="-ACHOMhiO5MB73_FvKfa-161" source="-ACHOMhiO5MB73_FvKfa-91">
          <mxGeometry relative="1" as="geometry">
            <mxPoint x="249" y="354" as="targetPoint" />
          </mxGeometry>
        </mxCell>
        <mxCell id="-ACHOMhiO5MB73_FvKfa-91" value="inc" style="text;html=1;align=center;verticalAlign=middle;whiteSpace=wrap;rounded=0;" vertex="1" parent="-ACHOMhiO5MB73_FvKfa-161">
          <mxGeometry x="561" y="417" width="26" height="12" as="geometry" />
        </mxCell>
        <mxCell id="-ACHOMhiO5MB73_FvKfa-92" value="dec" style="text;html=1;align=center;verticalAlign=middle;whiteSpace=wrap;rounded=0;" vertex="1" parent="-ACHOMhiO5MB73_FvKfa-161">
          <mxGeometry x="561" y="440" width="26" height="12" as="geometry" />
        </mxCell>
        <mxCell id="-ACHOMhiO5MB73_FvKfa-102" value="&lt;font style=&quot;font-size: 12px;&quot;&gt;pop&lt;/font&gt;" style="text;html=1;align=center;verticalAlign=middle;whiteSpace=wrap;rounded=0;fontSize=7;fontStyle=1" vertex="1" parent="-ACHOMhiO5MB73_FvKfa-161">
          <mxGeometry x="2" y="302" width="62" height="18" as="geometry" />
        </mxCell>
        <mxCell id="-ACHOMhiO5MB73_FvKfa-103" value="&lt;font style=&quot;font-size: 12px;&quot;&gt;read_en&lt;/font&gt;" style="text;html=1;align=center;verticalAlign=middle;whiteSpace=wrap;rounded=0;fontSize=7;fontStyle=1" vertex="1" parent="-ACHOMhiO5MB73_FvKfa-161">
          <mxGeometry x="2" y="322" width="62" height="18" as="geometry" />
        </mxCell>
        <mxCell id="-ACHOMhiO5MB73_FvKfa-144" style="edgeStyle=orthogonalEdgeStyle;rounded=0;orthogonalLoop=1;jettySize=auto;html=1;exitX=0.5;exitY=0;exitDx=0;exitDy=0;endSize=13;startSize=8;strokeWidth=1;" edge="1" parent="-ACHOMhiO5MB73_FvKfa-161" source="-ACHOMhiO5MB73_FvKfa-106">
          <mxGeometry relative="1" as="geometry">
            <mxPoint x="924" y="202" as="targetPoint" />
          </mxGeometry>
        </mxCell>
        <mxCell id="-ACHOMhiO5MB73_FvKfa-106" value="" style="shape=trapezoid;perimeter=trapezoidPerimeter;whiteSpace=wrap;html=1;fixedSize=1;rotation=90;fillColor=#fff2cc;strokeColor=#d6b656;" vertex="1" parent="-ACHOMhiO5MB73_FvKfa-161">
          <mxGeometry x="464" y="183" width="314.75" height="38.39" as="geometry" />
        </mxCell>
        <mxCell id="-ACHOMhiO5MB73_FvKfa-111" style="edgeStyle=orthogonalEdgeStyle;rounded=0;orthogonalLoop=1;jettySize=auto;html=1;exitX=1;exitY=0.5;exitDx=0;exitDy=0;entryX=0.059;entryY=1.008;entryDx=0;entryDy=0;entryPerimeter=0;endArrow=none;endFill=0;" edge="1" parent="-ACHOMhiO5MB73_FvKfa-161" source="-ACHOMhiO5MB73_FvKfa-26" target="-ACHOMhiO5MB73_FvKfa-106">
          <mxGeometry relative="1" as="geometry" />
        </mxCell>
        <mxCell id="-ACHOMhiO5MB73_FvKfa-112" style="edgeStyle=orthogonalEdgeStyle;rounded=0;orthogonalLoop=1;jettySize=auto;html=1;exitX=1;exitY=0.5;exitDx=0;exitDy=0;entryX=0.185;entryY=1.012;entryDx=0;entryDy=0;entryPerimeter=0;endArrow=none;endFill=0;" edge="1" parent="-ACHOMhiO5MB73_FvKfa-161" source="-ACHOMhiO5MB73_FvKfa-40" target="-ACHOMhiO5MB73_FvKfa-106">
          <mxGeometry relative="1" as="geometry" />
        </mxCell>
        <mxCell id="-ACHOMhiO5MB73_FvKfa-113" style="edgeStyle=orthogonalEdgeStyle;rounded=0;orthogonalLoop=1;jettySize=auto;html=1;exitX=1;exitY=0.5;exitDx=0;exitDy=0;entryX=0.315;entryY=1.012;entryDx=0;entryDy=0;entryPerimeter=0;endArrow=none;endFill=0;" edge="1" parent="-ACHOMhiO5MB73_FvKfa-161" source="-ACHOMhiO5MB73_FvKfa-43" target="-ACHOMhiO5MB73_FvKfa-106">
          <mxGeometry relative="1" as="geometry" />
        </mxCell>
        <mxCell id="-ACHOMhiO5MB73_FvKfa-114" style="edgeStyle=orthogonalEdgeStyle;rounded=0;orthogonalLoop=1;jettySize=auto;html=1;exitX=1;exitY=0.5;exitDx=0;exitDy=0;entryX=0.426;entryY=0.99;entryDx=0;entryDy=0;entryPerimeter=0;endArrow=none;endFill=0;" edge="1" parent="-ACHOMhiO5MB73_FvKfa-161" source="-ACHOMhiO5MB73_FvKfa-53" target="-ACHOMhiO5MB73_FvKfa-106">
          <mxGeometry relative="1" as="geometry" />
        </mxCell>
        <mxCell id="-ACHOMhiO5MB73_FvKfa-115" style="edgeStyle=orthogonalEdgeStyle;rounded=0;orthogonalLoop=1;jettySize=auto;html=1;exitX=1;exitY=0.5;exitDx=0;exitDy=0;entryX=0.547;entryY=0.99;entryDx=0;entryDy=0;entryPerimeter=0;endArrow=none;endFill=0;" edge="1" parent="-ACHOMhiO5MB73_FvKfa-161" source="-ACHOMhiO5MB73_FvKfa-50" target="-ACHOMhiO5MB73_FvKfa-106">
          <mxGeometry relative="1" as="geometry" />
        </mxCell>
        <mxCell id="-ACHOMhiO5MB73_FvKfa-116" style="edgeStyle=orthogonalEdgeStyle;rounded=0;orthogonalLoop=1;jettySize=auto;html=1;exitX=1;exitY=0.5;exitDx=0;exitDy=0;entryX=0.677;entryY=1.008;entryDx=0;entryDy=0;entryPerimeter=0;endArrow=none;endFill=0;" edge="1" parent="-ACHOMhiO5MB73_FvKfa-161" source="-ACHOMhiO5MB73_FvKfa-47" target="-ACHOMhiO5MB73_FvKfa-106">
          <mxGeometry relative="1" as="geometry" />
        </mxCell>
        <mxCell id="-ACHOMhiO5MB73_FvKfa-117" style="edgeStyle=orthogonalEdgeStyle;rounded=0;orthogonalLoop=1;jettySize=auto;html=1;exitX=1;exitY=0.5;exitDx=0;exitDy=0;entryX=0.799;entryY=1.008;entryDx=0;entryDy=0;entryPerimeter=0;endArrow=none;endFill=0;" edge="1" parent="-ACHOMhiO5MB73_FvKfa-161" source="-ACHOMhiO5MB73_FvKfa-56" target="-ACHOMhiO5MB73_FvKfa-106">
          <mxGeometry relative="1" as="geometry" />
        </mxCell>
        <mxCell id="-ACHOMhiO5MB73_FvKfa-118" style="edgeStyle=orthogonalEdgeStyle;rounded=0;orthogonalLoop=1;jettySize=auto;html=1;exitX=1;exitY=0.5;exitDx=0;exitDy=0;entryX=0.929;entryY=1.013;entryDx=0;entryDy=0;entryPerimeter=0;endArrow=none;endFill=0;" edge="1" parent="-ACHOMhiO5MB73_FvKfa-161" source="-ACHOMhiO5MB73_FvKfa-59" target="-ACHOMhiO5MB73_FvKfa-106">
          <mxGeometry relative="1" as="geometry" />
        </mxCell>
        <mxCell id="-ACHOMhiO5MB73_FvKfa-119" value="0" style="text;html=1;align=center;verticalAlign=middle;whiteSpace=wrap;rounded=0;" vertex="1" parent="-ACHOMhiO5MB73_FvKfa-161">
          <mxGeometry x="602" y="56" width="16" height="14" as="geometry" />
        </mxCell>
        <mxCell id="-ACHOMhiO5MB73_FvKfa-120" value="1" style="text;html=1;align=center;verticalAlign=middle;whiteSpace=wrap;rounded=0;" vertex="1" parent="-ACHOMhiO5MB73_FvKfa-161">
          <mxGeometry x="602" y="95" width="16" height="14" as="geometry" />
        </mxCell>
        <mxCell id="-ACHOMhiO5MB73_FvKfa-121" value="2" style="text;html=1;align=center;verticalAlign=middle;whiteSpace=wrap;rounded=0;" vertex="1" parent="-ACHOMhiO5MB73_FvKfa-161">
          <mxGeometry x="602" y="136" width="16" height="14" as="geometry" />
        </mxCell>
        <mxCell id="-ACHOMhiO5MB73_FvKfa-122" value="3" style="text;html=1;align=center;verticalAlign=middle;whiteSpace=wrap;rounded=0;" vertex="1" parent="-ACHOMhiO5MB73_FvKfa-161">
          <mxGeometry x="602" y="171" width="16" height="14" as="geometry" />
        </mxCell>
        <mxCell id="-ACHOMhiO5MB73_FvKfa-123" value="4" style="text;html=1;align=center;verticalAlign=middle;whiteSpace=wrap;rounded=0;" vertex="1" parent="-ACHOMhiO5MB73_FvKfa-161">
          <mxGeometry x="602" y="209" width="16" height="14" as="geometry" />
        </mxCell>
        <mxCell id="-ACHOMhiO5MB73_FvKfa-124" value="5" style="text;html=1;align=center;verticalAlign=middle;whiteSpace=wrap;rounded=0;" vertex="1" parent="-ACHOMhiO5MB73_FvKfa-161">
          <mxGeometry x="602" y="250" width="16" height="14" as="geometry" />
        </mxCell>
        <mxCell id="-ACHOMhiO5MB73_FvKfa-125" value="6" style="text;html=1;align=center;verticalAlign=middle;whiteSpace=wrap;rounded=0;" vertex="1" parent="-ACHOMhiO5MB73_FvKfa-161">
          <mxGeometry x="602" y="289" width="16" height="14" as="geometry" />
        </mxCell>
        <mxCell id="-ACHOMhiO5MB73_FvKfa-126" value="7" style="text;html=1;align=center;verticalAlign=middle;whiteSpace=wrap;rounded=0;" vertex="1" parent="-ACHOMhiO5MB73_FvKfa-161">
          <mxGeometry x="602" y="330" width="16" height="14" as="geometry" />
        </mxCell>
        <mxCell id="-ACHOMhiO5MB73_FvKfa-127" value="" style="endArrow=none;html=1;rounded=0;" edge="1" parent="-ACHOMhiO5MB73_FvKfa-161">
          <mxGeometry width="50" height="50" relative="1" as="geometry">
            <mxPoint x="571" y="71" as="sourcePoint" />
            <mxPoint x="579" y="58" as="targetPoint" />
          </mxGeometry>
        </mxCell>
        <mxCell id="-ACHOMhiO5MB73_FvKfa-129" value="8" style="text;html=1;align=center;verticalAlign=middle;whiteSpace=wrap;rounded=0;" vertex="1" parent="-ACHOMhiO5MB73_FvKfa-161">
          <mxGeometry x="565" y="48" width="16" height="10" as="geometry" />
        </mxCell>
        <mxCell id="-ACHOMhiO5MB73_FvKfa-130" value="8" style="text;html=1;align=center;verticalAlign=middle;whiteSpace=wrap;rounded=0;" vertex="1" parent="-ACHOMhiO5MB73_FvKfa-161">
          <mxGeometry x="565" y="87" width="16" height="10" as="geometry" />
        </mxCell>
        <mxCell id="-ACHOMhiO5MB73_FvKfa-131" value="" style="endArrow=none;html=1;rounded=0;" edge="1" parent="-ACHOMhiO5MB73_FvKfa-161">
          <mxGeometry width="50" height="50" relative="1" as="geometry">
            <mxPoint x="571" y="110" as="sourcePoint" />
            <mxPoint x="579" y="97" as="targetPoint" />
          </mxGeometry>
        </mxCell>
        <mxCell id="-ACHOMhiO5MB73_FvKfa-132" value="8" style="text;html=1;align=center;verticalAlign=middle;whiteSpace=wrap;rounded=0;" vertex="1" parent="-ACHOMhiO5MB73_FvKfa-161">
          <mxGeometry x="565" y="127" width="16" height="10" as="geometry" />
        </mxCell>
        <mxCell id="-ACHOMhiO5MB73_FvKfa-133" value="" style="endArrow=none;html=1;rounded=0;" edge="1" parent="-ACHOMhiO5MB73_FvKfa-161">
          <mxGeometry width="50" height="50" relative="1" as="geometry">
            <mxPoint x="571" y="150" as="sourcePoint" />
            <mxPoint x="579" y="137" as="targetPoint" />
          </mxGeometry>
        </mxCell>
        <mxCell id="-ACHOMhiO5MB73_FvKfa-134" value="8" style="text;html=1;align=center;verticalAlign=middle;whiteSpace=wrap;rounded=0;" vertex="1" parent="-ACHOMhiO5MB73_FvKfa-161">
          <mxGeometry x="565" y="163" width="16" height="10" as="geometry" />
        </mxCell>
        <mxCell id="-ACHOMhiO5MB73_FvKfa-135" value="" style="endArrow=none;html=1;rounded=0;" edge="1" parent="-ACHOMhiO5MB73_FvKfa-161">
          <mxGeometry width="50" height="50" relative="1" as="geometry">
            <mxPoint x="571" y="186" as="sourcePoint" />
            <mxPoint x="579" y="173" as="targetPoint" />
          </mxGeometry>
        </mxCell>
        <mxCell id="-ACHOMhiO5MB73_FvKfa-136" value="8" style="text;html=1;align=center;verticalAlign=middle;whiteSpace=wrap;rounded=0;" vertex="1" parent="-ACHOMhiO5MB73_FvKfa-161">
          <mxGeometry x="565" y="201" width="16" height="10" as="geometry" />
        </mxCell>
        <mxCell id="-ACHOMhiO5MB73_FvKfa-137" value="" style="endArrow=none;html=1;rounded=0;" edge="1" parent="-ACHOMhiO5MB73_FvKfa-161">
          <mxGeometry width="50" height="50" relative="1" as="geometry">
            <mxPoint x="571" y="224" as="sourcePoint" />
            <mxPoint x="579" y="211" as="targetPoint" />
          </mxGeometry>
        </mxCell>
        <mxCell id="-ACHOMhiO5MB73_FvKfa-138" value="8" style="text;html=1;align=center;verticalAlign=middle;whiteSpace=wrap;rounded=0;" vertex="1" parent="-ACHOMhiO5MB73_FvKfa-161">
          <mxGeometry x="565" y="242" width="16" height="10" as="geometry" />
        </mxCell>
        <mxCell id="-ACHOMhiO5MB73_FvKfa-139" value="" style="endArrow=none;html=1;rounded=0;" edge="1" parent="-ACHOMhiO5MB73_FvKfa-161">
          <mxGeometry width="50" height="50" relative="1" as="geometry">
            <mxPoint x="571" y="265" as="sourcePoint" />
            <mxPoint x="579" y="252" as="targetPoint" />
          </mxGeometry>
        </mxCell>
        <mxCell id="-ACHOMhiO5MB73_FvKfa-140" value="8" style="text;html=1;align=center;verticalAlign=middle;whiteSpace=wrap;rounded=0;" vertex="1" parent="-ACHOMhiO5MB73_FvKfa-161">
          <mxGeometry x="565" y="281" width="16" height="10" as="geometry" />
        </mxCell>
        <mxCell id="-ACHOMhiO5MB73_FvKfa-141" value="" style="endArrow=none;html=1;rounded=0;" edge="1" parent="-ACHOMhiO5MB73_FvKfa-161">
          <mxGeometry width="50" height="50" relative="1" as="geometry">
            <mxPoint x="571" y="304" as="sourcePoint" />
            <mxPoint x="579" y="291" as="targetPoint" />
          </mxGeometry>
        </mxCell>
        <mxCell id="-ACHOMhiO5MB73_FvKfa-142" value="8" style="text;html=1;align=center;verticalAlign=middle;whiteSpace=wrap;rounded=0;" vertex="1" parent="-ACHOMhiO5MB73_FvKfa-161">
          <mxGeometry x="565" y="321" width="16" height="10" as="geometry" />
        </mxCell>
        <mxCell id="-ACHOMhiO5MB73_FvKfa-143" value="" style="endArrow=none;html=1;rounded=0;" edge="1" parent="-ACHOMhiO5MB73_FvKfa-161">
          <mxGeometry width="50" height="50" relative="1" as="geometry">
            <mxPoint x="571" y="344" as="sourcePoint" />
            <mxPoint x="579" y="331" as="targetPoint" />
          </mxGeometry>
        </mxCell>
        <mxCell id="-ACHOMhiO5MB73_FvKfa-145" value="&lt;font style=&quot;font-size: 12px;&quot;&gt;[7:0] data_out&lt;/font&gt;" style="text;html=1;align=center;verticalAlign=middle;whiteSpace=wrap;rounded=0;fontSize=7;fontStyle=1" vertex="1" parent="-ACHOMhiO5MB73_FvKfa-161">
          <mxGeometry x="930" y="193.19000000000005" width="96" height="18" as="geometry" />
        </mxCell>
        <mxCell id="-ACHOMhiO5MB73_FvKfa-148" value="" style="endArrow=none;html=1;rounded=0;" edge="1" parent="-ACHOMhiO5MB73_FvKfa-161">
          <mxGeometry width="50" height="50" relative="1" as="geometry">
            <mxPoint x="617" y="390" as="sourcePoint" />
            <mxPoint x="625" y="377" as="targetPoint" />
          </mxGeometry>
        </mxCell>
        <mxCell id="-ACHOMhiO5MB73_FvKfa-149" value="3" style="text;html=1;align=center;verticalAlign=middle;whiteSpace=wrap;rounded=0;" vertex="1" parent="-ACHOMhiO5MB73_FvKfa-161">
          <mxGeometry x="603" y="373" width="14" height="10" as="geometry" />
        </mxCell>
        <mxCell id="-ACHOMhiO5MB73_FvKfa-152" style="edgeStyle=orthogonalEdgeStyle;rounded=0;orthogonalLoop=1;jettySize=auto;html=1;exitX=0.875;exitY=0.5;exitDx=0;exitDy=0;exitPerimeter=0;" edge="1" parent="-ACHOMhiO5MB73_FvKfa-161" source="-ACHOMhiO5MB73_FvKfa-150">
          <mxGeometry relative="1" as="geometry">
            <mxPoint x="905.5" y="358" as="targetPoint" />
          </mxGeometry>
        </mxCell>
        <mxCell id="-ACHOMhiO5MB73_FvKfa-157" style="edgeStyle=orthogonalEdgeStyle;rounded=0;orthogonalLoop=1;jettySize=auto;html=1;exitX=0.16;exitY=0.55;exitDx=0;exitDy=0;exitPerimeter=0;endArrow=none;endFill=0;" edge="1" parent="-ACHOMhiO5MB73_FvKfa-161" source="-ACHOMhiO5MB73_FvKfa-150">
          <mxGeometry relative="1" as="geometry">
            <mxPoint x="621.0000000000002" y="362.0000000000001" as="targetPoint" />
          </mxGeometry>
        </mxCell>
        <mxCell id="-ACHOMhiO5MB73_FvKfa-150" value="== Depth" style="ellipse;shape=cloud;whiteSpace=wrap;html=1;fillColor=#f8cecc;strokeColor=#b85450;" vertex="1" parent="-ACHOMhiO5MB73_FvKfa-161">
          <mxGeometry x="756" y="318" width="100" height="80" as="geometry" />
        </mxCell>
        <mxCell id="-ACHOMhiO5MB73_FvKfa-153" style="edgeStyle=orthogonalEdgeStyle;rounded=0;orthogonalLoop=1;jettySize=auto;html=1;exitX=0.875;exitY=0.5;exitDx=0;exitDy=0;exitPerimeter=0;" edge="1" parent="-ACHOMhiO5MB73_FvKfa-161" source="-ACHOMhiO5MB73_FvKfa-151">
          <mxGeometry relative="1" as="geometry">
            <mxPoint x="908" y="454" as="targetPoint" />
          </mxGeometry>
        </mxCell>
        <mxCell id="-ACHOMhiO5MB73_FvKfa-158" style="edgeStyle=orthogonalEdgeStyle;rounded=0;orthogonalLoop=1;jettySize=auto;html=1;exitX=0.16;exitY=0.55;exitDx=0;exitDy=0;exitPerimeter=0;endArrow=none;endFill=0;" edge="1" parent="-ACHOMhiO5MB73_FvKfa-161" source="-ACHOMhiO5MB73_FvKfa-151">
          <mxGeometry relative="1" as="geometry">
            <mxPoint x="713.5000000000002" y="361.6428571428572" as="targetPoint" />
          </mxGeometry>
        </mxCell>
        <mxCell id="-ACHOMhiO5MB73_FvKfa-151" value="== 0" style="ellipse;shape=cloud;whiteSpace=wrap;html=1;fillColor=#f8cecc;strokeColor=#b85450;" vertex="1" parent="-ACHOMhiO5MB73_FvKfa-161">
          <mxGeometry x="774" y="414" width="100" height="80" as="geometry" />
        </mxCell>
        <mxCell id="-ACHOMhiO5MB73_FvKfa-155" value="&lt;font style=&quot;font-size: 12px;&quot;&gt;full&lt;/font&gt;" style="text;html=1;align=center;verticalAlign=middle;whiteSpace=wrap;rounded=0;fontSize=7;fontStyle=1" vertex="1" parent="-ACHOMhiO5MB73_FvKfa-161">
          <mxGeometry x="905" y="349" width="40" height="18" as="geometry" />
        </mxCell>
        <mxCell id="-ACHOMhiO5MB73_FvKfa-156" value="&lt;font style=&quot;font-size: 12px;&quot;&gt;empty&lt;/font&gt;" style="text;html=1;align=center;verticalAlign=middle;whiteSpace=wrap;rounded=0;fontSize=7;fontStyle=1" vertex="1" parent="-ACHOMhiO5MB73_FvKfa-161">
          <mxGeometry x="915" y="446" width="40" height="18" as="geometry" />
        </mxCell>
      </root>
    </mxGraphModel>
  </diagram>
</mxfile>
